<mxfile host="Electron" modified="2024-01-05T08:29:55.494Z" agent="Mozilla/5.0 (Windows NT 10.0; Win64; x64) AppleWebKit/537.36 (KHTML, like Gecko) draw.io/21.6.8 Chrome/114.0.5735.289 Electron/25.5.0 Safari/537.36" etag="oqx55t5VOn1zQvKKlbiU" version="21.6.8" type="device">
  <diagram id="C5RBs43oDa-KdzZeNtuy" name="Page-1">
    <mxGraphModel dx="821" dy="531" grid="1" gridSize="10" guides="1" tooltips="1" connect="1" arrows="1" fold="1" page="1" pageScale="1" pageWidth="827" pageHeight="1169" math="0" shadow="0">
      <root>
        <mxCell id="WIyWlLk6GJQsqaUBKTNV-0" />
        <mxCell id="WIyWlLk6GJQsqaUBKTNV-1" parent="WIyWlLk6GJQsqaUBKTNV-0" />
        <mxCell id="SC2HYXkVzDJsUlS9Oy-v-8" value="Hotel" style="swimlane;fontStyle=1;align=center;verticalAlign=top;childLayout=stackLayout;horizontal=1;startSize=26;horizontalStack=0;resizeParent=1;resizeParentMax=0;resizeLast=0;collapsible=1;marginBottom=0;whiteSpace=wrap;html=1;" parent="WIyWlLk6GJQsqaUBKTNV-1" vertex="1">
          <mxGeometry x="70" y="160" width="160" height="160" as="geometry" />
        </mxCell>
        <mxCell id="SC2HYXkVzDJsUlS9Oy-v-9" value="+ Hotel_Name: string&lt;br&gt;+HotelAddress:string&lt;br&gt;+HotelNumber:int" style="text;strokeColor=none;fillColor=none;align=left;verticalAlign=top;spacingLeft=4;spacingRight=4;overflow=hidden;rotatable=0;points=[[0,0.5],[1,0.5]];portConstraint=eastwest;whiteSpace=wrap;html=1;" parent="SC2HYXkVzDJsUlS9Oy-v-8" vertex="1">
          <mxGeometry y="26" width="160" height="54" as="geometry" />
        </mxCell>
        <mxCell id="SC2HYXkVzDJsUlS9Oy-v-10" value="" style="line;strokeWidth=1;fillColor=none;align=left;verticalAlign=middle;spacingTop=-1;spacingLeft=3;spacingRight=3;rotatable=0;labelPosition=right;points=[];portConstraint=eastwest;strokeColor=inherit;" parent="SC2HYXkVzDJsUlS9Oy-v-8" vertex="1">
          <mxGeometry y="80" width="160" height="8" as="geometry" />
        </mxCell>
        <mxCell id="SC2HYXkVzDJsUlS9Oy-v-11" value="+ addRoom()&lt;br&gt;+addFacilities()&lt;br&gt;-addStaff()&lt;br&gt;-removeStaff()" style="text;strokeColor=none;fillColor=none;align=left;verticalAlign=top;spacingLeft=4;spacingRight=4;overflow=hidden;rotatable=0;points=[[0,0.5],[1,0.5]];portConstraint=eastwest;whiteSpace=wrap;html=1;" parent="SC2HYXkVzDJsUlS9Oy-v-8" vertex="1">
          <mxGeometry y="88" width="160" height="72" as="geometry" />
        </mxCell>
        <mxCell id="SC2HYXkVzDJsUlS9Oy-v-12" value="1" style="endArrow=open;html=1;endSize=12;startArrow=diamondThin;startSize=14;startFill=1;edgeStyle=orthogonalEdgeStyle;align=left;verticalAlign=bottom;rounded=0;entryX=0.005;entryY=0.511;entryDx=0;entryDy=0;entryPerimeter=0;exitX=1;exitY=0.511;exitDx=0;exitDy=0;exitPerimeter=0;" parent="WIyWlLk6GJQsqaUBKTNV-1" edge="1" target="SC2HYXkVzDJsUlS9Oy-v-18" source="SC2HYXkVzDJsUlS9Oy-v-10">
          <mxGeometry x="-1" y="3" relative="1" as="geometry">
            <mxPoint x="230" y="239.66" as="sourcePoint" />
            <mxPoint x="330" y="240" as="targetPoint" />
          </mxGeometry>
        </mxCell>
        <mxCell id="SC2HYXkVzDJsUlS9Oy-v-16" value="Room" style="swimlane;fontStyle=1;align=center;verticalAlign=top;childLayout=stackLayout;horizontal=1;startSize=26;horizontalStack=0;resizeParent=1;resizeParentMax=0;resizeLast=0;collapsible=1;marginBottom=0;whiteSpace=wrap;html=1;" parent="WIyWlLk6GJQsqaUBKTNV-1" vertex="1">
          <mxGeometry x="334" y="160" width="160" height="158" as="geometry" />
        </mxCell>
        <mxCell id="SC2HYXkVzDJsUlS9Oy-v-17" value="+roomId : int&lt;br&gt;+roomType:string&lt;br&gt;+roomSize:string" style="text;strokeColor=none;fillColor=none;align=left;verticalAlign=top;spacingLeft=4;spacingRight=4;overflow=hidden;rotatable=0;points=[[0,0.5],[1,0.5]];portConstraint=eastwest;whiteSpace=wrap;html=1;" parent="SC2HYXkVzDJsUlS9Oy-v-16" vertex="1">
          <mxGeometry y="26" width="160" height="54" as="geometry" />
        </mxCell>
        <mxCell id="SC2HYXkVzDJsUlS9Oy-v-18" value="" style="line;strokeWidth=1;fillColor=none;align=left;verticalAlign=middle;spacingTop=-1;spacingLeft=3;spacingRight=3;rotatable=0;labelPosition=right;points=[];portConstraint=eastwest;strokeColor=inherit;" parent="SC2HYXkVzDJsUlS9Oy-v-16" vertex="1">
          <mxGeometry y="80" width="160" height="8" as="geometry" />
        </mxCell>
        <mxCell id="SC2HYXkVzDJsUlS9Oy-v-19" value="+searchRoom()&lt;br&gt;+addRoom()&lt;br&gt;+removeRoom()" style="text;strokeColor=none;fillColor=none;align=left;verticalAlign=top;spacingLeft=4;spacingRight=4;overflow=hidden;rotatable=0;points=[[0,0.5],[1,0.5]];portConstraint=eastwest;whiteSpace=wrap;html=1;" parent="SC2HYXkVzDJsUlS9Oy-v-16" vertex="1">
          <mxGeometry y="88" width="160" height="70" as="geometry" />
        </mxCell>
        <mxCell id="SC2HYXkVzDJsUlS9Oy-v-20" value="" style="endArrow=block;endSize=16;endFill=0;html=1;rounded=0;entryX=0.558;entryY=0.995;entryDx=0;entryDy=0;entryPerimeter=0;exitX=0.313;exitY=0;exitDx=0;exitDy=0;exitPerimeter=0;" parent="WIyWlLk6GJQsqaUBKTNV-1" target="SC2HYXkVzDJsUlS9Oy-v-19" edge="1" source="SC2HYXkVzDJsUlS9Oy-v-36">
          <mxGeometry width="160" relative="1" as="geometry">
            <mxPoint x="290" y="390" as="sourcePoint" />
            <mxPoint x="480.72" y="320.00000000000006" as="targetPoint" />
            <Array as="points">
              <mxPoint x="290" y="350" />
              <mxPoint x="423" y="350" />
            </Array>
          </mxGeometry>
        </mxCell>
        <mxCell id="SC2HYXkVzDJsUlS9Oy-v-36" value="Regular room" style="swimlane;fontStyle=1;align=center;verticalAlign=top;childLayout=stackLayout;horizontal=1;startSize=26;horizontalStack=0;resizeParent=1;resizeParentMax=0;resizeLast=0;collapsible=1;marginBottom=0;whiteSpace=wrap;html=1;" parent="WIyWlLk6GJQsqaUBKTNV-1" vertex="1">
          <mxGeometry x="240" y="400" width="160" height="150" as="geometry" />
        </mxCell>
        <mxCell id="SC2HYXkVzDJsUlS9Oy-v-37" value="+ roomId: int&lt;br&gt;+entryDate : date&lt;br&gt;+leaveDate : date" style="text;strokeColor=none;fillColor=none;align=left;verticalAlign=top;spacingLeft=4;spacingRight=4;overflow=hidden;rotatable=0;points=[[0,0.5],[1,0.5]];portConstraint=eastwest;whiteSpace=wrap;html=1;" parent="SC2HYXkVzDJsUlS9Oy-v-36" vertex="1">
          <mxGeometry y="26" width="160" height="54" as="geometry" />
        </mxCell>
        <mxCell id="SC2HYXkVzDJsUlS9Oy-v-38" value="" style="line;strokeWidth=1;fillColor=none;align=left;verticalAlign=middle;spacingTop=-1;spacingLeft=3;spacingRight=3;rotatable=0;labelPosition=right;points=[];portConstraint=eastwest;strokeColor=inherit;" parent="SC2HYXkVzDJsUlS9Oy-v-36" vertex="1">
          <mxGeometry y="80" width="160" height="8" as="geometry" />
        </mxCell>
        <mxCell id="SC2HYXkVzDJsUlS9Oy-v-39" value="+ addDays()&lt;br&gt;+addRoom()&lt;br&gt;+removeRooms" style="text;strokeColor=none;fillColor=none;align=left;verticalAlign=top;spacingLeft=4;spacingRight=4;overflow=hidden;rotatable=0;points=[[0,0.5],[1,0.5]];portConstraint=eastwest;whiteSpace=wrap;html=1;" parent="SC2HYXkVzDJsUlS9Oy-v-36" vertex="1">
          <mxGeometry y="88" width="160" height="62" as="geometry" />
        </mxCell>
        <mxCell id="iG7Od9_PDy1zWYDM7qFq-4" value="1" style="edgeStyle=orthogonalEdgeStyle;rounded=0;orthogonalLoop=1;jettySize=auto;html=1;exitX=0.5;exitY=0;exitDx=0;exitDy=0;endArrow=none;endFill=0;" parent="WIyWlLk6GJQsqaUBKTNV-1" source="SC2HYXkVzDJsUlS9Oy-v-41" target="iG7Od9_PDy1zWYDM7qFq-3" edge="1">
          <mxGeometry x="0.7918" y="-14" relative="1" as="geometry">
            <mxPoint as="offset" />
          </mxGeometry>
        </mxCell>
        <mxCell id="SC2HYXkVzDJsUlS9Oy-v-41" value="Booking" style="swimlane;fontStyle=1;align=center;verticalAlign=top;childLayout=stackLayout;horizontal=1;startSize=26;horizontalStack=0;resizeParent=1;resizeParentMax=0;resizeLast=0;collapsible=1;marginBottom=0;whiteSpace=wrap;html=1;" parent="WIyWlLk6GJQsqaUBKTNV-1" vertex="1">
          <mxGeometry x="620" y="160" width="140" height="178" as="geometry" />
        </mxCell>
        <mxCell id="SC2HYXkVzDJsUlS9Oy-v-42" value="+BookingID : int&lt;br&gt;+customerID : int&lt;br&gt;+CustomerName:string&lt;br&gt;+NoOfRooms:int" style="text;strokeColor=none;fillColor=none;align=left;verticalAlign=top;spacingLeft=4;spacingRight=4;overflow=hidden;rotatable=0;points=[[0,0.5],[1,0.5]];portConstraint=eastwest;whiteSpace=wrap;html=1;" parent="SC2HYXkVzDJsUlS9Oy-v-41" vertex="1">
          <mxGeometry y="26" width="140" height="74" as="geometry" />
        </mxCell>
        <mxCell id="SC2HYXkVzDJsUlS9Oy-v-43" value="" style="line;strokeWidth=1;fillColor=none;align=left;verticalAlign=middle;spacingTop=-1;spacingLeft=3;spacingRight=3;rotatable=0;labelPosition=right;points=[];portConstraint=eastwest;strokeColor=inherit;" parent="SC2HYXkVzDJsUlS9Oy-v-41" vertex="1">
          <mxGeometry y="100" width="140" height="8" as="geometry" />
        </mxCell>
        <mxCell id="SC2HYXkVzDJsUlS9Oy-v-44" value="+addRooms()&lt;br&gt;+removeRooms()&lt;br&gt;+bookRoom()&lt;br&gt;+editRooms()" style="text;strokeColor=none;fillColor=none;align=left;verticalAlign=top;spacingLeft=4;spacingRight=4;overflow=hidden;rotatable=0;points=[[0,0.5],[1,0.5]];portConstraint=eastwest;whiteSpace=wrap;html=1;" parent="SC2HYXkVzDJsUlS9Oy-v-41" vertex="1">
          <mxGeometry y="108" width="140" height="70" as="geometry" />
        </mxCell>
        <mxCell id="SC2HYXkVzDJsUlS9Oy-v-45" value="" style="endArrow=none;html=1;rounded=0;align=center;verticalAlign=top;endFill=0;labelBackgroundColor=none;entryX=1.005;entryY=0.699;entryDx=0;entryDy=0;entryPerimeter=0;exitX=0;exitY=0.5;exitDx=0;exitDy=0;" parent="WIyWlLk6GJQsqaUBKTNV-1" target="SC2HYXkVzDJsUlS9Oy-v-17" edge="1" source="SC2HYXkVzDJsUlS9Oy-v-42">
          <mxGeometry relative="1" as="geometry">
            <mxPoint x="620" y="220" as="sourcePoint" />
            <mxPoint x="530" y="330" as="targetPoint" />
            <Array as="points" />
          </mxGeometry>
        </mxCell>
        <mxCell id="SC2HYXkVzDJsUlS9Oy-v-47" value="0..n" style="resizable=0;html=1;align=left;verticalAlign=top;labelBackgroundColor=none;" parent="SC2HYXkVzDJsUlS9Oy-v-45" connectable="0" vertex="1">
          <mxGeometry x="-1" relative="1" as="geometry">
            <mxPoint x="-29" as="offset" />
          </mxGeometry>
        </mxCell>
        <mxCell id="SC2HYXkVzDJsUlS9Oy-v-48" value="" style="resizable=0;html=1;align=right;verticalAlign=bottom;labelBackgroundColor=none;" parent="SC2HYXkVzDJsUlS9Oy-v-45" connectable="0" vertex="1">
          <mxGeometry x="1" relative="1" as="geometry" />
        </mxCell>
        <mxCell id="SC2HYXkVzDJsUlS9Oy-v-49" value="1" style="edgeLabel;html=1;align=center;verticalAlign=middle;resizable=0;points=[];" parent="SC2HYXkVzDJsUlS9Oy-v-45" vertex="1" connectable="0">
          <mxGeometry x="0.8014" relative="1" as="geometry">
            <mxPoint y="10" as="offset" />
          </mxGeometry>
        </mxCell>
        <mxCell id="SC2HYXkVzDJsUlS9Oy-v-50" value="" style="endArrow=none;html=1;rounded=0;align=center;verticalAlign=top;endFill=0;labelBackgroundColor=none;entryX=0.871;entryY=1.006;entryDx=0;entryDy=0;entryPerimeter=0;exitX=0.5;exitY=0;exitDx=0;exitDy=0;" parent="WIyWlLk6GJQsqaUBKTNV-1" source="SC2HYXkVzDJsUlS9Oy-v-67" target="SC2HYXkVzDJsUlS9Oy-v-44" edge="1">
          <mxGeometry relative="1" as="geometry">
            <mxPoint x="762" y="420" as="sourcePoint" />
            <mxPoint x="530" y="380" as="targetPoint" />
          </mxGeometry>
        </mxCell>
        <mxCell id="SC2HYXkVzDJsUlS9Oy-v-73" value="1" style="edgeLabel;html=1;align=center;verticalAlign=middle;resizable=0;points=[];" parent="SC2HYXkVzDJsUlS9Oy-v-50" vertex="1" connectable="0">
          <mxGeometry x="0.2504" relative="1" as="geometry">
            <mxPoint x="10" y="-24" as="offset" />
          </mxGeometry>
        </mxCell>
        <mxCell id="SC2HYXkVzDJsUlS9Oy-v-74" value="1" style="edgeLabel;html=1;align=center;verticalAlign=middle;resizable=0;points=[];" parent="SC2HYXkVzDJsUlS9Oy-v-50" vertex="1" connectable="0">
          <mxGeometry x="-0.7824" y="-1" relative="1" as="geometry">
            <mxPoint x="9" as="offset" />
          </mxGeometry>
        </mxCell>
        <mxCell id="SC2HYXkVzDJsUlS9Oy-v-54" value="" style="endArrow=none;html=1;rounded=0;align=center;verticalAlign=top;endFill=0;labelBackgroundColor=none;entryX=0.142;entryY=1.008;entryDx=0;entryDy=0;entryPerimeter=0;exitX=0.75;exitY=0;exitDx=0;exitDy=0;" parent="WIyWlLk6GJQsqaUBKTNV-1" source="SC2HYXkVzDJsUlS9Oy-v-58" target="SC2HYXkVzDJsUlS9Oy-v-44" edge="1">
          <mxGeometry relative="1" as="geometry">
            <mxPoint x="600" y="430" as="sourcePoint" />
            <mxPoint x="530" y="380" as="targetPoint" />
            <Array as="points">
              <mxPoint x="600" y="400" />
              <mxPoint x="640" y="400" />
            </Array>
          </mxGeometry>
        </mxCell>
        <mxCell id="SC2HYXkVzDJsUlS9Oy-v-71" value="1" style="edgeLabel;html=1;align=center;verticalAlign=middle;resizable=0;points=[];" parent="SC2HYXkVzDJsUlS9Oy-v-54" vertex="1" connectable="0">
          <mxGeometry x="0.9312" relative="1" as="geometry">
            <mxPoint x="7" y="5" as="offset" />
          </mxGeometry>
        </mxCell>
        <mxCell id="SC2HYXkVzDJsUlS9Oy-v-72" value="1" style="edgeLabel;html=1;align=center;verticalAlign=middle;resizable=0;points=[];" parent="SC2HYXkVzDJsUlS9Oy-v-54" vertex="1" connectable="0">
          <mxGeometry x="-0.8155" relative="1" as="geometry">
            <mxPoint x="10" as="offset" />
          </mxGeometry>
        </mxCell>
        <mxCell id="SC2HYXkVzDJsUlS9Oy-v-58" value="Payment" style="swimlane;fontStyle=1;align=center;verticalAlign=top;childLayout=stackLayout;horizontal=1;startSize=26;horizontalStack=0;resizeParent=1;resizeParentMax=0;resizeLast=0;collapsible=1;marginBottom=0;whiteSpace=wrap;html=1;" parent="WIyWlLk6GJQsqaUBKTNV-1" vertex="1">
          <mxGeometry x="485" y="420" width="150" height="150" as="geometry" />
        </mxCell>
        <mxCell id="SC2HYXkVzDJsUlS9Oy-v-59" value="+payment_Id : int&lt;br&gt;+customer_Id : int&lt;br&gt;+customerName : String&amp;nbsp;&lt;br&gt;+Amount : float" style="text;strokeColor=none;fillColor=none;align=left;verticalAlign=top;spacingLeft=4;spacingRight=4;overflow=hidden;rotatable=0;points=[[0,0.5],[1,0.5]];portConstraint=eastwest;whiteSpace=wrap;html=1;" parent="SC2HYXkVzDJsUlS9Oy-v-58" vertex="1">
          <mxGeometry y="26" width="150" height="64" as="geometry" />
        </mxCell>
        <mxCell id="SC2HYXkVzDJsUlS9Oy-v-60" value="" style="line;strokeWidth=1;fillColor=none;align=left;verticalAlign=middle;spacingTop=-1;spacingLeft=3;spacingRight=3;rotatable=0;labelPosition=right;points=[];portConstraint=eastwest;strokeColor=inherit;" parent="SC2HYXkVzDJsUlS9Oy-v-58" vertex="1">
          <mxGeometry y="90" width="150" height="8" as="geometry" />
        </mxCell>
        <mxCell id="SC2HYXkVzDJsUlS9Oy-v-61" value="+addPayment()&lt;br&gt;+editPayment()&lt;br&gt;+removePayment()" style="text;strokeColor=none;fillColor=none;align=left;verticalAlign=top;spacingLeft=4;spacingRight=4;overflow=hidden;rotatable=0;points=[[0,0.5],[1,0.5]];portConstraint=eastwest;whiteSpace=wrap;html=1;" parent="SC2HYXkVzDJsUlS9Oy-v-58" vertex="1">
          <mxGeometry y="98" width="150" height="52" as="geometry" />
        </mxCell>
        <mxCell id="SC2HYXkVzDJsUlS9Oy-v-67" value="Customer" style="swimlane;fontStyle=1;align=center;verticalAlign=top;childLayout=stackLayout;horizontal=1;startSize=26;horizontalStack=0;resizeParent=1;resizeParentMax=0;resizeLast=0;collapsible=1;marginBottom=0;whiteSpace=wrap;html=1;" parent="WIyWlLk6GJQsqaUBKTNV-1" vertex="1">
          <mxGeometry x="670" y="420" width="140" height="150" as="geometry" />
        </mxCell>
        <mxCell id="SC2HYXkVzDJsUlS9Oy-v-68" value="+customerId : int&lt;br&gt;+customerName : String&lt;br&gt;+phone : int&lt;br&gt;+address :string" style="text;strokeColor=none;fillColor=none;align=left;verticalAlign=top;spacingLeft=4;spacingRight=4;overflow=hidden;rotatable=0;points=[[0,0.5],[1,0.5]];portConstraint=eastwest;whiteSpace=wrap;html=1;" parent="SC2HYXkVzDJsUlS9Oy-v-67" vertex="1">
          <mxGeometry y="26" width="140" height="64" as="geometry" />
        </mxCell>
        <mxCell id="SC2HYXkVzDJsUlS9Oy-v-69" value="" style="line;strokeWidth=1;fillColor=none;align=left;verticalAlign=middle;spacingTop=-1;spacingLeft=3;spacingRight=3;rotatable=0;labelPosition=right;points=[];portConstraint=eastwest;strokeColor=inherit;" parent="SC2HYXkVzDJsUlS9Oy-v-67" vertex="1">
          <mxGeometry y="90" width="140" height="8" as="geometry" />
        </mxCell>
        <mxCell id="SC2HYXkVzDJsUlS9Oy-v-70" value="+ addCustomer()&lt;br&gt;+removeCustomer()&lt;br&gt;" style="text;strokeColor=none;fillColor=none;align=left;verticalAlign=top;spacingLeft=4;spacingRight=4;overflow=hidden;rotatable=0;points=[[0,0.5],[1,0.5]];portConstraint=eastwest;whiteSpace=wrap;html=1;" parent="SC2HYXkVzDJsUlS9Oy-v-67" vertex="1">
          <mxGeometry y="98" width="140" height="52" as="geometry" />
        </mxCell>
        <mxCell id="iG7Od9_PDy1zWYDM7qFq-0" value="food and events" style="swimlane;fontStyle=1;align=center;verticalAlign=top;childLayout=stackLayout;horizontal=1;startSize=26;horizontalStack=0;resizeParent=1;resizeParentMax=0;resizeLast=0;collapsible=1;marginBottom=0;whiteSpace=wrap;html=1;" parent="WIyWlLk6GJQsqaUBKTNV-1" vertex="1">
          <mxGeometry x="500" y="10" width="120" height="140" as="geometry" />
        </mxCell>
        <mxCell id="iG7Od9_PDy1zWYDM7qFq-1" value="+eventId : int&lt;br&gt;+eventType:string&lt;br&gt;+foodType:string" style="text;strokeColor=none;fillColor=none;align=left;verticalAlign=top;spacingLeft=4;spacingRight=4;overflow=hidden;rotatable=0;points=[[0,0.5],[1,0.5]];portConstraint=eastwest;whiteSpace=wrap;html=1;" parent="iG7Od9_PDy1zWYDM7qFq-0" vertex="1">
          <mxGeometry y="26" width="120" height="54" as="geometry" />
        </mxCell>
        <mxCell id="iG7Od9_PDy1zWYDM7qFq-2" value="" style="line;strokeWidth=1;fillColor=none;align=left;verticalAlign=middle;spacingTop=-1;spacingLeft=3;spacingRight=3;rotatable=0;labelPosition=right;points=[];portConstraint=eastwest;strokeColor=inherit;" parent="iG7Od9_PDy1zWYDM7qFq-0" vertex="1">
          <mxGeometry y="80" width="120" height="8" as="geometry" />
        </mxCell>
        <mxCell id="iG7Od9_PDy1zWYDM7qFq-3" value="+addevent()&lt;br&gt;+addfood()&lt;br&gt;+rem_event_food()" style="text;strokeColor=none;fillColor=none;align=left;verticalAlign=top;spacingLeft=4;spacingRight=4;overflow=hidden;rotatable=0;points=[[0,0.5],[1,0.5]];portConstraint=eastwest;whiteSpace=wrap;html=1;" parent="iG7Od9_PDy1zWYDM7qFq-0" vertex="1">
          <mxGeometry y="88" width="120" height="52" as="geometry" />
        </mxCell>
        <mxCell id="iG7Od9_PDy1zWYDM7qFq-5" value="1" style="text;html=1;strokeColor=none;fillColor=none;align=center;verticalAlign=middle;whiteSpace=wrap;rounded=0;" parent="WIyWlLk6GJQsqaUBKTNV-1" vertex="1">
          <mxGeometry x="690" y="130" width="30" height="20" as="geometry" />
        </mxCell>
      </root>
    </mxGraphModel>
  </diagram>
</mxfile>
